<?xml version="1.0" encoding="utf-8"?>
<!-- Generator: Adobe Illustrator 15.0.0, SVG Export Plug-In . SVG Version: 6.00 Build 0)  -->
<!DOCTYPE svg PUBLIC "-//W3C//DTD SVG 1.1//EN" "http://www.w3.org/Graphics/SVG/1.1/DTD/svg11.dtd">
<svg version="1.1" xmlns="http://www.w3.org/2000/svg" xmlns:xlink="http://www.w3.org/1999/xlink" x="0px" y="0px"
	 width="374.567px" height="58.451px" viewBox="0 0 374.567 58.451" enable-background="new 0 0 374.567 58.451"
	 xml:space="preserve">
<g id="Layer_1" display="none">
	
		<text transform="matrix(1 0 0 1 0 45.5806)" display="inline" font-family="'NeutraTextTF-Bold'" font-size="53.6246" letter-spacing="8">STORYPOST</text>
</g>
<g id="Layer_1_copy">
	<g>
		<path d="M0.644,38.396l6.112-3.539c1.609,2.627,3.7,4.558,7.399,4.558c3.11,0,5.094-1.555,5.094-3.7
			c0-2.573-2.038-3.485-5.469-4.986l-1.877-0.804c-5.416-2.306-9.008-5.201-9.008-11.314c0-5.63,4.29-9.919,10.992-9.919
			c4.772,0,8.204,1.662,10.67,6.005l-5.844,3.753c-1.287-2.306-2.681-3.217-4.826-3.217c-2.198,0-3.592,1.394-3.592,3.217
			c0,2.252,1.394,3.164,4.611,4.558l1.876,0.804c6.381,2.735,9.973,5.523,9.973,11.796c0,6.756-5.308,10.456-12.439,10.456
			C7.346,46.063,2.842,42.739,0.644,38.396z"/>
		<path d="M47.886,15.714H37.483V9.12h28.311v6.595H55.392v29.866h-7.506V15.714z"/>
		<path d="M75.986,27.35c0-10.778,8.365-18.713,18.874-18.713s18.874,7.936,18.874,18.713c0,10.777-8.365,18.713-18.874,18.713
			S75.986,38.127,75.986,27.35z M106.013,27.35c0-6.81-4.504-12.011-11.153-12.011S83.707,20.541,83.707,27.35
			s4.504,12.011,11.153,12.011S106.013,34.16,106.013,27.35z"/>
		<path d="M155.079,45.581h-8.687l-6.005-9.223c-0.697,0.107-1.448,0.161-2.145,0.161h-2.574v9.062h-7.506V9.12h10.08
			c10.188,0,16.3,4.879,16.3,13.78c0,5.684-2.52,9.276-7.024,11.314L155.079,45.581z M138.028,29.978
			c6.113,0,8.793-1.931,8.793-7.078s-2.788-7.185-8.793-7.185h-2.359v14.263H138.028z"/>
		<path d="M178.408,33.999L164.574,9.12h8.311l6.435,11.742c1.394,2.574,2.949,6.917,2.949,6.917s1.448-4.29,2.842-6.917
			l6.167-11.742h7.667l-12.976,24.343v12.118h-7.56V33.999z"/>
		<path d="M211.87,9.12h10.08c10.188,0,16.3,5.308,16.3,14.102s-6.166,14.048-16.3,14.048h-2.574v8.311h-7.506V9.12z
			 M221.736,30.674c6.113,0,8.793-2.466,8.793-7.453c0-5.04-2.788-7.507-8.793-7.507h-2.359v14.96H221.736z"/>
		<path d="M250.909,27.35c0-10.778,8.365-18.713,18.875-18.713c10.509,0,18.873,7.936,18.873,18.713
			c0,10.777-8.364,18.713-18.873,18.713C259.273,46.063,250.909,38.127,250.909,27.35z M280.936,27.35
			c0-6.81-4.504-12.011-11.152-12.011c-6.649,0-11.153,5.201-11.153,12.011s4.504,12.011,11.153,12.011
			C276.432,39.361,280.936,34.16,280.936,27.35z"/>
		<path d="M299.653,38.396l6.112-3.539c1.608,2.627,3.7,4.558,7.399,4.558c3.11,0,5.094-1.555,5.094-3.7
			c0-2.573-2.037-3.485-5.469-4.986l-1.877-0.804c-5.415-2.306-9.008-5.201-9.008-11.314c0-5.63,4.289-9.919,10.992-9.919
			c4.771,0,8.203,1.662,10.67,6.005l-5.845,3.753c-1.286-2.306-2.681-3.217-4.825-3.217c-2.198,0-3.593,1.394-3.593,3.217
			c0,2.252,1.395,3.164,4.611,4.558l1.877,0.804c6.381,2.735,9.973,5.523,9.973,11.796c0,6.756-5.309,10.456-12.439,10.456
			C306.355,46.063,301.852,42.739,299.653,38.396z"/>
		<path d="M346.896,15.714h-10.402V9.12h28.312v6.595h-10.402v29.866h-7.507V15.714z"/>
	</g>
</g>
</svg>
